#!OML:ASF F:\VICON\USERDATA\INSTALL\rory3\rory3.ASF
:FULLY-SPECIFIED
:DEGREES
446
root 0.316496 15.7917 3.40416 10.8911 -28.7207 11.3525
lowerback -3.46677 5.17557 8.73319
upperback 2.63053 6.45972 -0.986971
thorax 5.80547 3.54621 -5.30175
lowerneck -1.78876 -7.77768 -13.8661
upperneck 46.8357 -13.4187 6.74579
head 20.4612 -7.09346 3.63857
rclavicle 7.39479e-014 3.49861e-014
rhumerus -28.5876 27.5766 -93.4859
rradius 40.853
rwrist 5.54054
rhand -21.8268 -45.1404
rfingers 7.12502
rthumb 4.57604 -75.071
lclavicle 7.39479e-014 3.49861e-014
lhumerus -30.8046 -63.1488 102.065
lradius 86.5134
lwrist 26.5981
lhand -16.3465 -22.0792
lfingers 7.12502
lthumb 9.86591 7.66962
rfemur -23.4957 -6.84395 0.88821
rtibia 70.8067
rfoot -11.8103 -12.9986
rtoes -14.8079
lfemur -50.009 -23.7412 -28.6159
ltibia 55.6342
lfoot -17.9858 -15.0858
ltoes 26.2199
447
root 0.314071 15.7717 3.39533 10.8882 -28.6268 11.4084
lowerback -3.24471 5.18853 8.72201
upperback 2.58705 6.49881 -0.966928
thorax 5.63485 3.55747 -5.2924
lowerneck -1.66712 -7.82166 -13.932
upperneck 46.7301 -13.5268 6.86522
head 20.3962 -7.1348 3.69396
rclavicle 5.96354e-014 -1.59028e-014
rhumerus -28.8872 27.5697 -93.5706
rradius 40.7289
rwrist 5.99857
rhand -21.7664 -45.8736
rfingers 7.12502
rthumb 4.63437 -75.8029
lclavicle 5.96354e-014 -1.59028e-014
lhumerus -31.3944 -63.3078 102.692
lradius 86.5348
lwrist 26.1987
lhand -16.671 -21.6763
lfingers 7.12502
lthumb 9.55282 8.08718
rfemur -23.3334 -6.79031 0.782273
rtibia 70.9666
rfoot -13.1544 -11.708
rtoes -3.36154
lfemur -50.1843 -23.7387 -28.6523
ltibia 55.8594
lfoot -18.1323 -15.2401
ltoes 26.0255
448
root 0.311263 15.7655 3.39793 10.9531 -28.4463 11.3641
lowerback -3.39437 5.1644 8.92499
upperback 2.63094 6.43579 -0.906093
thorax 5.77442 3.53807 -5.33156
lowerneck -1.47788 -7.8205 -14.0943
upperneck 46.631 -13.5365 6.9442
head 20.3045 -7.16094 3.76695
rclavicle -9.93923e-014 -9.54166e-015
rhumerus -29.0902 27.7949 -93.6156
rradius 40.6047
rwrist 6.27066
rhand -21.7176 -46.4212
rfingers 7.12502
rthumb 4.68148 -76.3495
lclavicle -9.93923e-014 -9.54166e-015
lhumerus -31.8351 -63.4445 103.229
lradius 86.4782
lwrist 25.5581
lhand -17.2927 -21.8882
lfingers 7.12502
lthumb 8.95293 7.90184
rfemur -23.2982 -6.95179 0.85898
rtibia 71.0428
rfoot -14.0552 -10.8134
rtoes -4.53227
lfemur -50.2819 -23.8535 -28.5899
ltibia 56.0242
lfoot -18.3087 -15.2323
ltoes 25.6899
449
root 0.303772 15.7659 3.4032 11.0137 -28.3807 11.3069
lowerback -3.70438 5.16825 9.07735
upperback 2.79207 6.39203 -0.852796
thorax 6.1294 3.53822 -5.32768
lowerneck -1.35109 -7.85247 -14.1297
upperneck 46.5208 -13.5315 6.85053
head 20.1764 -7.17281 3.72787
rclavicle 6.20208e-014 -6.36111e-015
rhumerus -29.0138 28.1277 -93.6371
rradius 40.3886
rwrist 6.1013
rhand -21.6264 -46.7128
rfingers 7.12502
rthumb 4.76949 -76.6391
lclavicle 6.20208e-014 -6.36111e-015
lhumerus -31.6407 -63.6621 103.108
lradius 86.4576
lwrist 25.1413
lhand -17.6587 -22.4332
lfingers 7.12502
lthumb 8.5997 7.37169
rfemur -23.3247 -7.03946 0.954472
rtibia 71.098
rfoot -13.3019 -11.7261
rtoes -3.80339
lfemur -50.3107 -23.8628 -28.5188
ltibia 56.0972
lfoot -18.3381 -15.2743
ltoes 25.7888
450
root 0.29228 15.7672 3.40714 11.0525 -28.4569 11.2318
lowerback -3.97278 5.25566 9.15116
upperback 3.09166 6.4662 -0.867406
thorax 6.62977 3.60589 -5.33257
lowerneck -1.65371 -7.9995 -13.9928
upperneck 46.481 -13.7192 6.8199
head 20.2485 -7.21048 3.63737
rclavicle -1.03368e-014 -3.18055e-015
rhumerus -28.5611 28.2521 -93.5717
rradius 40.1648
rwrist 5.8707
rhand -21.8769 -46.534
rfingers 7.12502
rthumb 4.52759 -76.4656
lclavicle -1.03368e-014 -3.18055e-015
lhumerus -30.6857 -64.0017 102.185
lradius 86.521
lwrist 25.2503
lhand -17.2157 -22.4943
lfingers 7.12502
lthumb 9.02721 7.29257
rfemur -23.4096 -6.9488 1.08604
rtibia 71.165
rfoot -14.3759 -10.6885
rtoes -6.15599
lfemur -50.2975 -23.7274 -28.4617
ltibia 56.1422
lfoot -18.519 -15.1746
ltoes 25.2408
451
root 0.283864 15.7617 3.4027 11.0282 -28.4845 11.3266
lowerback -3.68767 5.29684 8.97045
upperback 3.0374 6.56457 -0.894003
thorax 6.4045 3.63839 -5.27728
lowerneck -1.73394 -8.08874 -14.0169
upperneck 46.5692 -13.9429 6.99776
head 20.416 -7.28242 3.68954
rclavicle 4.69132e-014 -3.81667e-014
rhumerus -28.8088 28.0324 -93.7129
rradius 40.141
rwrist 5.90063
rhand -22.3089 -46.5034
rfingers 7.12502
rthumb 4.11049 -76.4435
lclavicle 4.69132e-014 -3.81667e-014
lhumerus -31.012 -64.078 102.441
lradius 86.6516
lwrist 25.4091
lhand -16.1302 -22.3032
lfingers 7.12502
lthumb 10.0745 7.43561
rfemur -23.4832 -6.88321 1.04256
rtibia 71.2725
rfoot -15.4079 -9.70212
rtoes -5.68178
lfemur -50.3366 -23.668 -28.5379
ltibia 56.1758
lfoot -18.5395 -15.1468
ltoes 25.045
452
root 0.27942 15.7562 3.3903 10.9584 -28.4983 11.5618
lowerback -3.44237 5.35466 8.74271
upperback 3.01729 6.68292 -0.944403
thorax 6.23905 3.68315 -5.21397
lowerneck -1.72669 -8.20122 -14.0668
upperneck 46.5413 -14.1972 7.1947
head 20.4864 -7.36793 3.75069
rclavicle -2.94201e-014 -6.04305e-014
rhumerus -28.955 27.6996 -93.7091
rradius 40.1393
rwrist 6.01575
rhand -22.4299 -46.8807
rfingers 7.12502
rthumb 3.99363 -76.823
lclavicle -2.94201e-014 -6.04305e-014
lhumerus -31.2609 -64.2662 102.697
lradius 86.8249
lwrist 25.6273
lhand -14.6254 -22.2094
lfingers 7.12502
lthumb 11.5261 7.45365
rfemur -23.6299 -6.89888 0.842244
rtibia 71.416
rfoot -15.2728 -9.8061
rtoes -3.94923
lfemur -50.4465 -23.6357 -28.6966
ltibia 56.2012
lfoot -18.4307 -15.3115
ltoes 25.5314
453
root 0.275608 15.7545 3.38717 10.9611 -28.5228 11.6841
lowerback -3.39184 5.41236 8.68091
upperback 3.04505 6.76961 -0.982299
thorax 6.25117 3.72605 -5.21193
lowerneck -1.81946 -8.31805 -13.8835
upperneck 46.5711 -14.3493 7.06707
head 20.5207 -7.40127 3.61971
rclavicle -2.14687e-014 -3.18055e-014
rhumerus -28.9978 27.5424 -93.724
rradius 39.992
rwrist 6.25586
rhand -22.4903 -46.9613
rfingers 7.12502
rthumb 3.93527 -76.9047
lclavicle -2.14687e-014 -3.18055e-014
lhumerus -31.4704 -64.5402 102.896
lradius 86.9874
lwrist 25.9659
lhand -13.4779 -22.3407
lfingers 7.12502
lthumb 12.6325 7.25731
rfemur -23.7686 -6.96481 0.72258
rtibia 71.5173
rfoot -15.4508 -9.59161
rtoes -5.28729
lfemur -50.5294 -23.5992 -28.7751
ltibia 56.2341
lfoot -18.5911 -15.353
ltoes 25.4133
454
root 0.2714 15.7519 3.39224 11.0359 -28.4597 11.6688
lowerback -3.52588 5.43545 8.82534
upperback 3.08991 6.77822 -0.992561
thorax 6.39816 3.74283 -5.28531
lowerneck -1.85464 -8.36873 -13.6816
upperneck 46.6335 -14.3915 6.89443
head 20.5286 -7.39632 3.48817
rclavicle 3.49861e-014 3.49861e-014
rhumerus -29.0929 27.5076 -93.8117
rradius 39.7386
rwrist 6.5691
rhand -23.0716 -46.3995
rfingers 7.12502
rthumb 3.374 -76.3525
lclavicle 3.49861e-014 3.49861e-014
lhumerus -31.8983 -64.8687 103.304
lradius 87.0832
lwrist 26.2258
lhand -13.8915 -22.2548
lfingers 7.12502
lthumb 12.2338 7.36736
rfemur -23.8091 -7.04072 0.751618
rtibia 71.5678
rfoot -14.5286 -10.5881
rtoes -4.54588
lfemur -50.5839 -23.6454 -28.7523
ltibia 56.2807
lfoot -18.839 -15.2522
ltoes 24.5812
455
root 0.266472 15.7469 3.39589 11.0283 -28.3608 11.6436
lowerback -3.5584 5.42183 8.99114
upperback 3.07435 6.7446 -0.949508
thorax 6.41066 3.73158 -5.33304
lowerneck -1.40975 -8.32866 -13.8776
upperneck 46.5044 -14.3845 7.02705
head 20.3523 -7.42735 3.61062
rclavicle 2.38542e-015 -2.54444e-014
rhumerus -29.3975 27.571 -93.9791
rradius 39.4952
rwrist 6.89135
rhand -24.1176 -45.358
rfingers 7.12502
rthumb 2.36381 -75.3247
lclavicle 2.38542e-015 -2.54444e-014
lhumerus -32.8316 -65.0669 104.237
lradius 87.1567
lwrist 26.2707
lhand -14.7726 -21.5484
lfingers 7.12502
lthumb 11.384 8.1226
rfemur -23.7388 -7.06473 0.812612
rtibia 71.6051
rfoot -13.6838 -11.9846
rtoes -2.94027
lfemur -50.5717 -23.6877 -28.7531
ltibia 56.3455
lfoot -18.9739 -15.1813
ltoes 23.9255
456
root 0.261981 15.7412 3.39836 10.9517 -28.3169 11.7134
lowerback -3.47497 5.38145 9.01786
upperback 3.0427 6.69607 -0.914401
thorax 6.31939 3.7035 -5.32685
lowerneck -0.942259 -8.27408 -14.1227
upperneck 46.2608 -14.3416 7.17554
head 20.0886 -7.45114 3.75262
rclavicle 9.38264e-014 0
rhumerus -29.7696 27.7347 -94.2088
rradius 39.3062
rwrist 7.31206
rhand -21.0682 -47.3837
rfingers 7.12502
rthumb 5.30853 -77.2972
lclavicle 9.38264e-014 0
lhumerus -33.5513 -65.0738 104.912
lradius 87.2286
lwrist 26.2061
lhand -14.7106 -21.0166
lfingers 7.12502
lthumb 11.4438 8.65106
rfemur -23.6976 -7.09799 0.759354
rtibia 71.6722
rfoot -13.0841 -13.2774
rtoes -3.48903
lfemur -50.5284 -23.6919 -28.8497
ltibia 56.3951
lfoot -18.9482 -15.2039
ltoes 24.1291
457
root 0.25835 15.7382 3.39658 10.9081 -28.3214 11.8733
lowerback -3.405 5.36547 8.89904
upperback 3.06392 6.68807 -0.920625
thorax 6.28598 3.69456 -5.27472
lowerneck -0.911887 -8.30207 -14.2493
upperneck 46.2079 -14.3933 7.25114
head 20.0828 -7.48474 3.80276
rclavicle -7.95139e-016 4.45278e-014
rhumerus -29.928 27.8518 -94.3128
rradius 39.1206
rwrist 7.51821
rhand -21.8955 -47.0553
rfingers 7.12502
rthumb 4.50971 -76.9873
lclavicle -7.95139e-016 4.45278e-014
lhumerus -33.7615 -65.1373 105.081
lradius 87.2762
lwrist 26.173
lhand -14.3091 -21.4969
lfingers 7.12502
lthumb 11.8311 8.1489
rfemur -23.8149 -7.1581 0.622185
rtibia 71.7768
rfoot -12.5278 -13.9565
rtoes -5.40402
lfemur -50.5653 -23.6973 -28.9782
ltibia 56.4101
lfoot -18.8396 -15.2901
ltoes 24.6804
458
root 0.253955 15.7358 3.39423 10.8497 -28.32 12.0572
lowerback -3.37765 5.33592 8.73897
upperback 3.10001 6.65824 -0.904177
thorax 6.28106 3.67375 -5.17404
lowerneck -0.885341 -8.30855 -14.494
upperneck 46.2314 -14.4291 7.38451
head 20.1588 -7.52798 3.90851
rclavicle 6.2816e-014 -3.18055e-015
rhumerus -29.9447 28.1033 -94.3544
rradius 38.8375
rwrist 7.21194
rhand -24.7807 -45.9827
rfingers 7.12502
rthumb 1.72334 -75.9555
lclavicle 6.2816e-014 -3.18055e-015
lhumerus -34.1332 -65.2097 105.479
lradius 87.3191
lwrist 26.2078
lhand -15.2385 -22.067
lfingers 7.12502
lthumb 10.9347 7.62824
rfemur -23.9161 -7.22569 0.461434
rtibia 71.87
rfoot -12.1048 -13.9809
rtoes -6.09955
lfemur -50.5798 -23.7035 -29.1364
ltibia 56.4066
lfoot -18.7275 -15.4373
ltoes 25.1712
459
root 0.248557 15.7343 3.39585 10.8023 -28.2449 12.1505
lowerback -3.35839 5.27638 8.67341
upperback 3.12657 6.581 -0.866415
thorax 6.27246 3.63231 -5.10856
lowerneck -0.901131 -8.2873 -14.6145
upperneck 46.3444 -14.406 7.4144
head 20.2657 -7.53741 3.95278
rclavicle 2.38542e-014 1.27222e-014
rhumerus -30.0432 28.229 -94.4333
rradius 38.6357
rwrist 6.95397
rhand -26.1203 -45.7932
rfingers 7.12502
rthumb 0.429537 -75.7725
lclavicle 2.38542e-014 1.27222e-014
lhumerus -34.6725 -65.2736 106.017
lradius 87.3547
lwrist 25.9069
lhand -17.0983 -22.1375
lfingers 7.12502
lthumb 9.14049 7.64442
rfemur -23.9295 -7.32952 0.394383
rtibia 71.9401
rfoot -11.5551 -13.6382
rtoes -7.23286
lfemur -50.5325 -23.7344 -29.2354
ltibia 56.3988
lfoot -18.69 -15.5235
ltoes 25.185
460
root 0.244864 15.7328 3.39593 10.8112 -28.1326 12.1671
lowerback -3.2666 5.24251 8.66867
upperback 3.1223 6.54373 -0.851301
thorax 6.20663 3.61109 -5.10355
lowerneck -1.1806 -8.36766 -14.5001
upperneck 46.7223 -14.5092 7.25108
head 20.6124 -7.56843 3.82806
rclavicle -1.98785e-014 2.8625e-014
rhumerus -30.2321 27.8041 -94.4643
rradius 38.6648
rwrist 7.24564
rhand -25.0546 -46.3088
rfingers 7.12502
rthumb 1.4588 -76.2836
lclavicle -1.98785e-014 2.8625e-014
lhumerus -34.9293 -65.1257 106.231
lradius 87.439
lwrist 25.9952
lhand -16.3271 -21.9337
lfingers 7.12502
lthumb 9.88461 7.8143
rfemur -23.938 -7.4409 0.407993
rtibia 72.0028
rfoot -11.439 -13.5684
rtoes -10.4122
lfemur -50.5406 -23.8138 -29.2353
ltibia 56.4162
lfoot -18.6645 -15.5509
ltoes 25.0531
